<svg xmlns="http://www.w3.org/2000/svg" width="839.54" height="173.78">
    <defs>
        <linearGradient id="prefix__Sfumatura_senza_nome_39" x1="3.06" y1="78.05" x2="208.86" y2="78.05"
            gradientUnits="userSpaceOnUse">
            <stop offset="0" stop-color="#2eafff" />
            <stop offset="1" stop-color="#505dde" />
        </linearGradient>
        <clipPath id="prefix__clip-path" transform="translate(0 -.46)">
            <path
                d="M2.45 136.92V19.19A19.19 19.19 0 0121.64 0H166.7a19.19 19.19 0 0117.81 12.05l23.58 58.87a19.23 19.23 0 010 14.27l-23.58 58.87a19.19 19.19 0 01-17.81 12.05H21.64a19.19 19.19 0 01-19.19-19.19z"
                fill="none" />
        </clipPath>
        <style>
            .prefix__cls-2 {
                fill: gray
            }
        </style>
    </defs>
    <g id="prefix__Livello_2" data-name="Livello 2">
        <g id="prefix__Livello_2-2" data-name="Livello 2">
            <g clip-path="url(#prefix__clip-path)">
                <path
                    d="M3.06 136.58v-117A19.07 19.07 0 0122.13.46h144.21a19.07 19.07 0 0117.71 12L207.49 71a19.12 19.12 0 010 14.19l-23.44 58.52a19.07 19.07 0 01-17.71 12H22.13a19.07 19.07 0 01-19.07-19.13z"
                    transform="translate(0 -.46)" fill="url(#prefix__Sfumatura_senza_nome_39)" />
                <path
                    d="M43.33 167.05L0 166.72s2-33.78 2.1-40.9c.25-30.13 16.32-41.27 20.19-47.14 9-13.61 11.6-20.76 18.88-26.5 9.5-7.5 20-6.25 29.16-9.13 4.12-1.29 8.53-7 19.09-6.25s19.25 10 29.91 13.92c7.28 2.67 40.77 16 43.79 20.55C166.9 77 166 90.14 163 93.72c-9.21 11.08-80.83 1.46-94 4-27.21 5.25-46.08 54.46-9.08 57.93zM85.12 48.56a13.59 13.59 0 00-.12 1.93 13.05 13.05 0 0024.44 6.37c-6.71-6.56-14.98-8.86-24.32-8.3z"
                    transform="translate(0 -.46)" fill="#fff" />
                <path
                    d="M32.27 158.55c-16.5-50.16 17.83-52.83 20.62-79.5C51.14 99.43 69 97.72 69 97.72c-27.21 5.25-46.08 54.46-9.08 57.93 0 0-15.51 39.82-27.65 2.9z"
                    transform="translate(0 -.46)" fill="#deeef9" />
            </g>
        </g>
    </g>
</svg>