<?xml version="1.0" encoding="UTF-8" standalone="no"?>
<!DOCTYPE svg PUBLIC "-//W3C//DTD SVG 1.1//EN" "http://www.w3.org/Graphics/SVG/1.1/DTD/svg11.dtd">
<svg version="1.1" xmlns="http://www.w3.org/2000/svg" xmlns:xlink="http://www.w3.org/1999/xlink" preserveAspectRatio="xMidYMid meet" viewBox="0 0 211 180" width="211" height="180"><defs><path d="M4.66 19.03C4.63 8.55 13.11 0.03 23.59 0C23.61 0 23.63 0 23.64 0C38 0 152.85 0 167.21 0C174.97 0 181.96 4.73 184.84 11.95C187.17 17.77 205.84 64.4 208.17 70.22C209.98 74.76 209.98 79.82 208.17 84.35C205.84 90.18 187.17 136.78 184.84 142.61C181.96 149.82 174.97 154.55 167.21 154.55C152.85 154.55 38 154.55 23.64 154.55C13.16 154.55 4.66 146.05 4.66 135.57C4.66 135.55 4.66 135.53 4.66 135.51C4.66 112.21 4.66 30.68 4.66 19.03Z" id="a5zJW3QUm"></path><linearGradient id="gradientb1btlyCqiM" gradientUnits="userSpaceOnUse" x1="4.66" y1="77.24" x2="209.54" y2="77.24"><stop style="stop-color: #2eafff;stop-opacity: 1" offset="0%"></stop><stop style="stop-color: #505dde;stop-opacity: 1" offset="100%"></stop></linearGradient><path d="M44.75 165.84C18.87 165.65 4.49 165.54 1.61 165.51C1.61 165.51 3.61 131.89 3.7 124.8C3.95 94.8 19.95 83.71 23.8 77.87C32.76 64.32 35.35 57.2 42.6 51.49C52.06 44.02 62.51 45.27 71.63 42.4C75.73 41.11 80.12 35.43 90.63 36.18C101.15 36.92 109.8 46.13 120.41 50.03C127.66 52.69 161 65.96 164 70.49C167.76 76.2 166.87 89.28 163.88 92.84C154.71 103.87 83.42 94.29 70.3 96.82C43.22 102.05 24.43 151.04 61.27 154.49C59.06 156.01 53.56 159.79 44.75 165.84ZM86.23 49.81C86.23 56.98 92.05 62.8 99.22 62.8C103.93 62.8 108.27 60.25 110.56 56.15C103.88 49.62 95.65 47.33 86.35 47.88C86.27 48.52 86.23 49.16 86.23 49.81Z" id="c1hheipHX"></path><path d="M54.27 78.24C52.52 98.53 70.3 96.82 70.3 96.82C43.22 102.05 24.43 151.04 61.27 154.49C61.27 154.49 45.82 194.13 33.74 157.38C17.31 107.45 51.49 104.79 54.27 78.24Z" id="aKLg9ZVHv"></path></defs><g><g><g><use xlink:href="#a5zJW3QUm" opacity="1" fill="url(#gradientb1btlyCqiM)"></use><g><use xlink:href="#a5zJW3QUm" opacity="1" fill-opacity="0" stroke="#000000" stroke-width="1" stroke-opacity="0"></use></g></g><g><use xlink:href="#c1hheipHX" opacity="1" fill="#ffffff" fill-opacity="1"></use><g><use xlink:href="#c1hheipHX" opacity="1" fill-opacity="0" stroke="#000000" stroke-width="1" stroke-opacity="0"></use></g></g><g><use xlink:href="#aKLg9ZVHv" opacity="1" fill="#deeef9" fill-opacity="1"></use><g><use xlink:href="#aKLg9ZVHv" opacity="1" fill-opacity="0" stroke="#000000" stroke-width="1" stroke-opacity="0"></use></g></g></g></g></svg>